<?xml version="1.0" encoding="UTF-8" standalone="no"?>
<!DOCTYPE svg PUBLIC "-//W3C//DTD SVG 1.1//EN" "http://www.w3.org/Graphics/SVG/1.1/DTD/svg11.dtd">
<!-- Generated by Microsoft Visio, SVG Export icon.svg Page-1 -->
<svg xmlns="http://www.w3.org/2000/svg" xmlns:xlink="http://www.w3.org/1999/xlink" xmlns:ev="http://www.w3.org/2001/xml-events"
		xmlns:v="http://schemas.microsoft.com/visio/2003/SVGExtensions/" width="5.19835in" height="5.19835in"
		viewBox="0 0 374.281 374.281" xml:space="preserve" color-interpolation-filters="sRGB" class="st5">
	<v:documentProperties v:langID="1033" v:viewMarkup="false"/>

	<style type="text/css">
	<![CDATA[
		.st1 {fill:#ffffff;stroke:#2b2b2b;stroke-linecap:butt;stroke-width:12}
		.st2 {fill:none;stroke:none;stroke-width:12}
		.st3 {fill:#2b2b2b;font-family:Arial Black;font-size:6.25001em}
		.st4 {fill:#ffc000;stroke:#2b2b2b;stroke-linecap:butt;stroke-width:12}
		.st5 {fill:none;fill-rule:evenodd;font-size:12px;overflow:visible;stroke-linecap:square;stroke-miterlimit:3}
	]]>
	</style>

	<g v:mID="0" v:index="1" v:groupContext="foregroundPage">
		<title>Page-1</title>
		<v:pageProperties v:drawingScale="0.0393701" v:pageScale="0.0393701" v:drawingUnits="24" v:shadowOffsetX="8.50394"
				v:shadowOffsetY="-8.50394"/>
		<g id="group11-1" transform="translate(12,-12)" v:mID="11" v:groupContext="group">
			<title>Sheet.11</title>
			<g id="shape8-2" v:mID="8" v:groupContext="shape" transform="translate(3.83693E-13,-105.084)">
				<title>Sheet.8</title>
				<path d="M335.66 374.28 A175.141 175.141 -180 0 0 350.28 304.22 A175.141 175.141 -180 0 0 335.66 234.17 L14.62 234.17
							 A175.141 175.141 -180 0 0 0 304.22 A175.141 175.141 -180 0 0 14.62 374.28 L335.66 374.28 Z"
						class="st1"/>
			</g>
			<g id="shape2-4" v:mID="2" v:groupContext="shape" transform="translate(6.39488E-14,-126.977)">
				<title>Sheet.2</title>
				<desc>Build++</desc>
				<v:textBlock v:margins="rect(4,4,4,4)" v:tabSpace="42.5197"/>
				<v:textRect cx="175.141" cy="326.118" width="350.29" height="96.3273"/>
				<rect x="0" y="277.954" width="350.281" height="96.3273" class="st2"/>
				<text x="21.46" y="348.62" class="st3" v:langID="1033"><v:paragraph v:horizAlign="1"/><v:tabList/>Build++</text>			</g>
			<g id="shape6-7" v:mID="6" v:groupContext="shape" transform="translate(14.6216,-245.197)">
				<title>Sheet.6</title>
				<path d="M321.04 374.28 A175.141 175.141 -180 0 0 0 374.28 L321.04 374.28 Z" class="st4"/>
			</g>
			<g id="shape9-9" v:mID="9" v:groupContext="shape" transform="translate(14.6216,1.13687E-13)">
				<title>Sheet.9</title>
				<path d="M321.04 269.2 L0 269.2 A175.141 175.141 -180 0 0 321.04 269.2 Z" class="st4"/>
			</g>
		</g>
	</g>
</svg>
